<?xml version="1.0" encoding="UTF-8"?> <svg xmlns="http://www.w3.org/2000/svg" width="64" height="64" viewBox="0 0 64 64" fill="none"> <path d="M8.998 8.255L12.737 10.129" stroke="white" stroke-width="2" stroke-miterlimit="10" stroke-linecap="round" stroke-linejoin="round"></path> <path d="M9.931 11.062L11.804 7.323" stroke="white" stroke-width="2" stroke-miterlimit="10" stroke-linecap="round" stroke-linejoin="round"></path> <path d="M14.437 15.059L16.523 16.105" stroke="white" stroke-miterlimit="10" stroke-linecap="round" stroke-linejoin="round"></path> <path d="M14.958 16.625L16.003 14.539" stroke="white" stroke-miterlimit="10" stroke-linecap="round" stroke-linejoin="round"></path> <path d="M51.239 8.255L47.501 10.129" stroke="white" stroke-width="2" stroke-miterlimit="10" stroke-linecap="round" stroke-linejoin="round"></path> <path d="M50.307 11.062L48.433 7.323" stroke="white" stroke-width="2" stroke-miterlimit="10" stroke-linecap="round" stroke-linejoin="round"></path> <path d="M45.8 15.059L43.714 16.105" stroke="white" stroke-miterlimit="10" stroke-linecap="round" stroke-linejoin="round"></path> <path d="M45.28 16.625L44.235 14.539" stroke="white" stroke-miterlimit="10" stroke-linecap="round" stroke-linejoin="round"></path> <path d="M54.368 50.371L52.282 51.416" stroke="white" stroke-miterlimit="10" stroke-linecap="round" stroke-linejoin="round"></path> <path d="M53.848 51.937L52.803 49.851" stroke="white" stroke-miterlimit="10" stroke-linecap="round" stroke-linejoin="round"></path> <path d="M10.974 50.371L8.888 51.416" stroke="white" stroke-miterlimit="10" stroke-linecap="round" stroke-linejoin="round"></path> <path d="M10.453 51.937L9.408 49.851" stroke="white" stroke-miterlimit="10" stroke-linecap="round" stroke-linejoin="round"></path> <path d="M47.476 24.058H16.523V54.808H47.476V24.058Z" stroke="white" stroke-width="2" stroke-miterlimit="10" stroke-linecap="round" stroke-linejoin="round"></path> <path d="M34.817 30.099H29.115V35.801H34.817V30.099Z" stroke="white" stroke-width="2" stroke-miterlimit="10" stroke-linecap="round" stroke-linejoin="round"></path> <path d="M44.371 30.099H38.669V35.801H44.371V30.099Z" stroke="white" stroke-width="2" stroke-miterlimit="10" stroke-linecap="round" stroke-linejoin="round"></path> <path d="M25.331 30.099H19.629V35.801H25.331V30.099Z" stroke="white" stroke-width="2" stroke-miterlimit="10" stroke-linecap="round" stroke-linejoin="round"></path> <path d="M34.817 43.811H29.115V54.808H34.817V43.811Z" stroke="white" stroke-width="2" stroke-miterlimit="10" stroke-linecap="round" stroke-linejoin="round"></path> <path d="M44.371 43.811H38.669V49.513H44.371V43.811Z" stroke="white" stroke-width="2" stroke-miterlimit="10" stroke-linecap="round" stroke-linejoin="round"></path> <path d="M25.331 43.811H19.629V49.513H25.331V43.811Z" stroke="white" stroke-width="2" stroke-miterlimit="10" stroke-linecap="round" stroke-linejoin="round"></path> <path d="M32.005 24.058H16.534L24.269 16.625L32.005 9.19202L39.741 16.625L47.477 24.058H32.005Z" stroke="white" stroke-width="2" stroke-miterlimit="10" stroke-linecap="round" stroke-linejoin="round"></path> </svg> 